<svg width="18" height="19" viewBox="0 0 18 19" fill="none" xmlns="http://www.w3.org/2000/svg">
<path d="M6.25 0.833313C6.75626 0.833313 7.16667 1.24372 7.16667 1.74998V2.66665H10.8333V1.74998C10.8333 1.24372 11.2437 0.833313 11.75 0.833313C12.2563 0.833313 12.6667 1.24372 12.6667 1.74998V2.66665H15.4167C16.4292 2.66665 17.25 3.48746 17.25 4.49998V16.4166C17.25 17.4292 16.4292 18.25 15.4167 18.25H2.58333C1.57081 18.25 0.75 17.4292 0.75 16.4166V4.49998C0.75 3.48746 1.57081 2.66665 2.58333 2.66665H5.33333V1.74998C5.33333 1.24372 5.74374 0.833313 6.25 0.833313ZM5.33333 4.49998H2.58333V7.24998H15.4167V4.49998H12.6667V5.41665C12.6667 5.92291 12.2563 6.33331 11.75 6.33331C11.2437 6.33331 10.8333 5.92291 10.8333 5.41665V4.49998H7.16667V5.41665C7.16667 5.92291 6.75626 6.33331 6.25 6.33331C5.74374 6.33331 5.33333 5.92291 5.33333 5.41665V4.49998ZM15.4167 9.08331H2.58333V16.4166H15.4167V9.08331Z" fill="white"/>
</svg>
