<svg width="16" height="18" viewBox="0 0 16 18" fill="none" xmlns="http://www.w3.org/2000/svg">
<path d="M5.25008 2.58333C4.74382 2.58333 4.33341 2.99374 4.33341 3.5C4.33341 4.00626 4.74382 4.41667 5.25008 4.41667C5.75634 4.41667 6.16675 4.00626 6.16675 3.5C6.16675 2.99374 5.75634 2.58333 5.25008 2.58333ZM2.65656 2.58333C3.03408 1.51524 4.05271 0.75 5.25008 0.75C6.44745 0.75 7.46608 1.51524 7.8436 2.58333H14.4167C14.923 2.58333 15.3334 2.99374 15.3334 3.5C15.3334 4.00626 14.923 4.41667 14.4167 4.41667H7.8436C7.46608 5.48476 6.44745 6.25 5.25008 6.25C4.05271 6.25 3.03408 5.48476 2.65656 4.41667H1.58341C1.07715 4.41667 0.666748 4.00626 0.666748 3.5C0.666748 2.99374 1.07715 2.58333 1.58341 2.58333H2.65656ZM10.7501 8.08333C10.2438 8.08333 9.83341 8.49374 9.83341 9C9.83341 9.50626 10.2438 9.91667 10.7501 9.91667C11.2563 9.91667 11.6667 9.50626 11.6667 9C11.6667 8.49374 11.2563 8.08333 10.7501 8.08333ZM8.15656 8.08333C8.53408 7.01524 9.55271 6.25 10.7501 6.25C11.9474 6.25 12.9661 7.01524 13.3436 8.08333H14.4167C14.923 8.08333 15.3334 8.49374 15.3334 9C15.3334 9.50626 14.923 9.91667 14.4167 9.91667H13.3436C12.9661 10.9848 11.9474 11.75 10.7501 11.75C9.55271 11.75 8.53408 10.9848 8.15656 9.91667H1.58341C1.07715 9.91667 0.666748 9.50626 0.666748 9C0.666748 8.49374 1.07715 8.08333 1.58341 8.08333H8.15656ZM5.25008 13.5833C4.74382 13.5833 4.33341 13.9937 4.33341 14.5C4.33341 15.0063 4.74382 15.4167 5.25008 15.4167C5.75634 15.4167 6.16675 15.0063 6.16675 14.5C6.16675 13.9937 5.75634 13.5833 5.25008 13.5833ZM2.65656 13.5833C3.03408 12.5152 4.05271 11.75 5.25008 11.75C6.44745 11.75 7.46608 12.5152 7.8436 13.5833H14.4167C14.923 13.5833 15.3334 13.9937 15.3334 14.5C15.3334 15.0063 14.923 15.4167 14.4167 15.4167H7.8436C7.46608 16.4848 6.44745 17.25 5.25008 17.25C4.05271 17.25 3.03408 16.4848 2.65656 15.4167H1.58341C1.07715 15.4167 0.666748 15.0063 0.666748 14.5C0.666748 13.9937 1.07715 13.5833 1.58341 13.5833H2.65656Z" fill="white"/>
</svg>
