<svg width="19" height="20" viewBox="0 0 19 20" fill="none" xmlns="http://www.w3.org/2000/svg">
<path d="M7.90636 1.97742C8.19719 1.30646 8.89995 0.833313 9.72069 0.833313C10.5414 0.833313 11.2442 1.30646 11.535 1.97742C14.4381 2.7223 16.5714 5.21112 16.5714 8.16665V12.4724L18.3644 14.9915C18.5646 15.2728 18.5833 15.6345 18.413 15.9325C18.2427 16.2306 17.911 16.4166 17.5501 16.4166H13.1114C12.8739 17.9714 11.4463 19.1666 9.72069 19.1666C7.99505 19.1666 6.56745 17.9714 6.33001 16.4166H1.89128C1.53034 16.4166 1.19871 16.2306 1.0284 15.9325C0.858093 15.6345 0.876759 15.2728 1.07697 14.9915L2.86995 12.4724V8.16665C2.86995 5.21112 5.0033 2.7223 7.90636 1.97742ZM8.33621 16.4166C8.53774 16.9507 9.08151 17.3333 9.72069 17.3333C10.3599 17.3333 10.9036 16.9507 11.1052 16.4166H8.33621ZM9.72069 3.58331C7.01815 3.58331 4.82731 5.63534 4.82731 8.16665V12.75C4.82731 12.931 4.77012 13.1079 4.66294 13.2585L3.71995 14.5833H15.7214L14.7784 13.2585C14.6713 13.1079 14.6141 12.931 14.6141 12.75V8.16665C14.6141 5.63534 12.4232 3.58331 9.72069 3.58331Z" fill="#DCDCDC"/>
</svg>
