<svg width="19" height="18" viewBox="0 0 19 18" fill="none" xmlns="http://www.w3.org/2000/svg">
<path fill-rule="evenodd" clip-rule="evenodd" d="M8.08333 16.3333C8.08333 15.8271 7.67293 15.4167 7.16667 15.4167H2.58333V2.58333H7.16667C7.67293 2.58333 8.08333 2.17293 8.08333 1.66667C8.08333 1.1604 7.67293 0.75 7.16667 0.75H2.58333C1.57081 0.75 0.75 1.57081 0.75 2.58333V15.4167C0.75 16.4292 1.57081 17.25 2.58333 17.25H7.16667C7.67293 17.25 8.08333 16.8396 8.08333 16.3333Z" fill="white"/>
<path d="M17.9041 9.64217C17.9891 9.55569 18.0534 9.45655 18.0971 9.35089C18.1416 9.2436 18.1663 9.12604 18.1667 9.00275L18.1667 9L18.1667 8.99725C18.166 8.76357 18.0765 8.53011 17.8982 8.35182L14.2315 4.68515C13.8735 4.32717 13.2931 4.32717 12.9352 4.68515C12.5772 5.04313 12.5772 5.62353 12.9352 5.98151L15.037 8.08333H6.25C5.74374 8.08333 5.33333 8.49374 5.33333 9C5.33333 9.50626 5.74374 9.91667 6.25 9.91667H15.037L12.9352 12.0185C12.5772 12.3765 12.5772 12.9569 12.9352 13.3148C13.2931 13.6728 13.8735 13.6728 14.2315 13.3148L17.8975 9.64884L17.9041 9.64217Z" fill="white"/>
</svg>
