<svg width="18" height="18" viewBox="0 0 18 18" fill="none" xmlns="http://www.w3.org/2000/svg">
<path d="M0.75 2.58333C0.75 1.57081 1.57081 0.75 2.58333 0.75H6.25C7.26252 0.75 8.08333 1.57081 8.08333 2.58333V6.25C8.08333 7.26252 7.26252 8.08333 6.25 8.08333H2.58333C1.57081 8.08333 0.75 7.26252 0.75 6.25V2.58333ZM6.25 2.58333H2.58333V6.25H6.25V2.58333ZM9.91667 2.58333C9.91667 1.57081 10.7375 0.75 11.75 0.75H15.4167C16.4292 0.75 17.25 1.57081 17.25 2.58333V6.25C17.25 7.26252 16.4292 8.08333 15.4167 8.08333H11.75C10.7375 8.08333 9.91667 7.26252 9.91667 6.25V2.58333ZM15.4167 2.58333H11.75V6.25H15.4167V2.58333ZM0.75 11.75C0.75 10.7375 1.57081 9.91667 2.58333 9.91667H6.25C7.26252 9.91667 8.08333 10.7375 8.08333 11.75V15.4167C8.08333 16.4292 7.26252 17.25 6.25 17.25H2.58333C1.57081 17.25 0.75 16.4292 0.75 15.4167V11.75ZM6.25 11.75H2.58333V15.4167H6.25V11.75ZM9.91667 11.75C9.91667 10.7375 10.7375 9.91667 11.75 9.91667H15.4167C16.4292 9.91667 17.25 10.7375 17.25 11.75V15.4167C17.25 16.4292 16.4292 17.25 15.4167 17.25H11.75C10.7375 17.25 9.91667 16.4292 9.91667 15.4167V11.75ZM15.4167 11.75H11.75V15.4167H15.4167V11.75Z" fill="white"/>
</svg>
