<svg width="21" height="20" viewBox="0 0 21 20" fill="none" xmlns="http://www.w3.org/2000/svg">
<path d="M8.78669 2.66665C5.54364 2.66665 2.91463 5.12908 2.91463 8.16665C2.91463 11.2042 5.54364 13.6666 8.78669 13.6666C12.0297 13.6666 14.6588 11.2042 14.6588 8.16665C14.6588 5.12908 12.0297 2.66665 8.78669 2.66665ZM0.957275 8.16665C0.957275 4.11656 4.46262 0.833313 8.78669 0.833313C13.1108 0.833313 16.6161 4.11656 16.6161 8.16665C16.6161 9.8613 16.0024 11.4217 14.9718 12.6635L20.2442 17.6018C20.6264 17.9598 20.6264 18.5402 20.2442 18.8982C19.862 19.2561 19.2423 19.2561 18.8601 18.8982L13.5877 13.9598C12.2619 14.9252 10.596 15.5 8.78669 15.5C4.46262 15.5 0.957275 12.2167 0.957275 8.16665Z" fill="#DCDCDC"/>
</svg>
