<svg width="19" height="14" viewBox="0 0 19 14" fill="none" xmlns="http://www.w3.org/2000/svg">
<path d="M16.3605 0.25C17.4279 0.25 18.2932 0.921573 18.2932 1.75V4.75C18.2932 5.57843 17.4279 6.25 16.3605 6.25L2.83162 6.25C1.76422 6.25 0.898926 5.57843 0.898926 4.75L0.898926 1.75C0.898926 0.921573 1.76422 0.25 2.83162 0.25L16.3605 0.25ZM16.3605 4.75V1.75L2.83162 1.75L2.83162 4.75L16.3605 4.75Z" fill="#B3B3B3"/>
<path d="M16.3605 7.75C17.4279 7.75 18.2932 8.42157 18.2932 9.25V12.25C18.2932 13.0784 17.4279 13.75 16.3605 13.75H2.83162C1.76422 13.75 0.898926 13.0784 0.898926 12.25L0.898926 9.25C0.898926 8.42157 1.76422 7.75 2.83162 7.75L16.3605 7.75ZM16.3605 12.25V9.25L2.83162 9.25L2.83162 12.25H16.3605Z" fill="#B3B3B3"/>
</svg>
