<svg width="25" height="22" viewBox="0 0 25 22" fill="none" xmlns="http://www.w3.org/2000/svg">
<g opacity="0.5">
<path d="M10.9064 2.97742C11.1972 2.30646 11.8999 1.83331 12.7207 1.83331C13.5414 1.83331 14.2442 2.30646 14.535 2.97742C17.4381 3.7223 19.5714 6.21112 19.5714 9.16665V13.4724L21.3644 15.9915C21.5646 16.2728 21.5833 16.6345 21.413 16.9325C21.2427 17.2306 20.911 17.4166 20.5501 17.4166H16.1114C15.8739 18.9714 14.4463 20.1666 12.7207 20.1666C10.9951 20.1666 9.56745 18.9714 9.33001 17.4166H4.89128C4.53034 17.4166 4.19871 17.2306 4.0284 16.9325C3.85809 16.6345 3.87676 16.2728 4.07697 15.9915L5.86995 13.4724V9.16665C5.86995 6.21112 8.0033 3.7223 10.9064 2.97742ZM11.3362 17.4166C11.5377 17.9507 12.0815 18.3333 12.7207 18.3333C13.3599 18.3333 13.9036 17.9507 14.1052 17.4166H11.3362ZM12.7207 4.58331C10.0182 4.58331 7.82731 6.63534 7.82731 9.16665V13.75C7.82731 13.931 7.77012 14.1079 7.66294 14.2585L6.71995 15.5833H18.7214L17.7784 14.2585C17.6713 14.1079 17.6141 13.931 17.6141 13.75V9.16665C17.6141 6.63534 15.4232 4.58331 12.7207 4.58331Z" fill="#DCDCDC"/>
</g>
<path d="M19.1265 8.5C21.1403 8.5 22.8295 6.96332 22.8295 5C22.8295 3.03668 21.1403 1.5 19.1265 1.5C17.1128 1.5 15.4236 3.03668 15.4236 5C15.4236 6.96332 17.1128 8.5 19.1265 8.5Z" fill="#FFA048" stroke="#2A2B2F"/>
</svg>
